#!OML:ASF E:\emotionWalksFemale\Project 1\Capture day 1\Session 1\Female1.ASF
:FULLY-SPECIFIED
:DEGREES
527
root 9.14591 15.657 -14.9924 177.354 8.68991 -182.567
lowerback 5.23209 3.001 1.80021
upperback -5.20304 4.28749 -1.05566
thorax -8.19401 2.02621 -2.64726
lowerneck -10.2552 -1.90861 -7.32317
upperneck 17.591 -3.14247 6.74383
head 7.28564 -1.62817 3.0996
rclavicle 4.97459e-014 4.77083e-015
rhumerus -47.0807 15.3759 -93.0312
rradius 32.4185
rwrist 16.8434
rhand 1.77356 -55.4332
rfingers 7.12502
rthumb 27.288 -83.4786
lclavicle 4.97459e-014 4.77083e-015
lhumerus -46.3776 -4.47618 84.909
lradius 34.8704
lwrist -20.3547
lhand -5.79659 -32.8913
lfingers 7.12502
lthumb 20.0279 -3.90347
rfemur 4.97852 1.86645 18.2299
rtibia 53.193
rfoot 17.6929 -2.53611
rtoes -15.1529
lfemur -8.58243 -18.703 -28.6909
ltibia 15.0759
lfoot -9.49161 23.1673
ltoes 7.42032
528
root 9.12986 15.6674 -15.111 177.229 8.80334 -182.886
lowerback 5.3727 2.92977 1.43482
upperback -5.04684 4.14427 -1.0691
thorax -8.1382 1.97355 -2.44335
lowerneck -10.4858 -1.82768 -6.94931
upperneck 17.5099 -2.9922 6.40721
head 7.27969 -1.54742 2.9391
rclavicle 2.93953e-014 1.09332e-015
rhumerus -46.8222 15.7694 -92.7073
rradius 32.5069
rwrist 16.1992
rhand 1.61667 -55.0519
rfingers 7.12502
rthumb 27.1379 -83.1208
lclavicle 2.93953e-014 1.09332e-015
lhumerus -45.8887 -4.74047 84.9768
lradius 35.3924
lwrist -18.4189
lhand -6.03883 -33.0447
lfingers 7.12502
lthumb 19.795 -4.03267
rfemur 3.23692 1.54578 17.6384
rtibia 55.7724
rfoot 17.2478 -4.03853
rtoes -13.189
lfemur -7.5475 -18.7384 -29.3624
ltibia 14.2666
lfoot -9.57286 23.3682
ltoes 8.44251
529
root 9.11534 15.6719 -15.2343 177.043 8.82753 -183.26
lowerback 5.54049 2.84174 1.01706
upperback -4.87323 3.97193 -1.09716
thorax -8.08188 1.90849 -2.22267
lowerneck -10.1788 -2.31181 -6.58982
upperneck 17.0225 -2.64916 5.99808
head 7.04706 -0.98448 2.82371
rclavicle -2.57675e-014 6.36111e-015
rhumerus -46.5933 16.2323 -92.4432
rradius 32.6528
rwrist 15.4994
rhand 1.99853 -54.9895
rfingers 7.12502
rthumb 27.5032 -83.0009
lclavicle -2.57675e-014 6.36111e-015
lhumerus -45.2477 -5.13604 85.0832
lradius 35.6885
lwrist -16.2544
lhand -6.22162 -33.3611
lfingers 7.12502
lthumb 19.6193 -4.33105
rfemur 1.68899 1.0738 16.9828
rtibia 58.1334
rfoot 16.3761 -5.2613
rtoes -10.5701
lfemur -6.47517 -18.9595 -30.1455
ltibia 13.5905
lfoot -9.61618 23.6609
ltoes 6.88021
530
root 9.10594 15.6743 -15.3552 176.944 8.83761 -183.364
lowerback 5.67011 2.75351 0.771714
upperback -4.77897 3.82714 -1.02411
thorax -8.08223 1.85048 -1.99572
lowerneck -11.3908 -2.43746 -6.1429
upperneck 18.0922 -2.74231 5.41232
head 7.60443 -1.02578 2.55587
rclavicle 4.06266e-014 4.37326e-015
rhumerus -46.4674 16.5125 -92.0613
rradius 32.7756
rwrist 15.0496
rhand 2.23319 -54.8092
rfingers 7.12502
rthumb 27.7276 -82.7847
lclavicle 4.06266e-014 4.37326e-015
lhumerus -44.6534 -5.58838 85.25
lradius 35.926
lwrist -14.0013
lhand -6.68522 -33.5604
lfingers 7.12502
lthumb 19.1735 -4.4855
rfemur 0.100351 0.67916 16.7817
rtibia 60.2772
rfoot 14.8713 -5.77551
rtoes -11.5003
lfemur -5.52548 -19.142 -30.5911
ltibia 12.9886
lfoot -9.6374 23.92
ltoes 4.83831
531
root 9.09675 15.677 -15.473 176.912 8.76241 -183.33
lowerback 5.81318 2.64834 0.648516
upperback -4.75064 3.67762 -0.913092
thorax -8.15538 1.78447 -1.7995
lowerneck -10.5172 -2.06895 -6.68751
upperneck 17.2608 -2.35241 6.40092
head 7.16843 -0.804946 3.00328
rclavicle 1.65488e-014 7.35503e-015
rhumerus -46.2903 16.5265 -91.5445
rradius 32.7184
rwrist 14.6926
rhand 2.17126 -54.4506
rfingers 7.12502
rthumb 27.6684 -82.4356
lclavicle 1.65488e-014 7.35503e-015
lhumerus -44.1763 -5.94153 85.3896
lradius 36.2407
lwrist -11.9164
lhand -7.03156 -33.6134
lfingers 7.12502
lthumb 18.8405 -4.50585
rfemur -1.48768 0.248022 16.7738
rtibia 62.1994
rfoot 12.2422 -5.85257
rtoes -15.2407
lfemur -4.72552 -19.2961 -30.8669
ltibia 12.5348
lfoot -9.75355 24.1128
ltoes 2.7497
532
root 9.08371 15.6797 -15.5877 176.916 8.45258 -183.444
lowerback 5.93133 2.48013 0.493141
upperback -4.73459 3.43575 -0.897626
thorax -8.22444 1.67343 -1.67249
lowerneck -11.3589 -2.13472 -6.36585
upperneck 18.1471 -2.38552 6.00053
head 7.60239 -0.811152 2.8264
rclavicle 1.25234e-014 1.0138e-014
rhumerus -46.0643 16.4245 -91.02
rradius 32.749
rwrist 14.117
rhand 1.86574 -54.3079
rfingers 7.12502
rthumb 27.3762 -82.3394
lclavicle 1.25234e-014 1.0138e-014
lhumerus -43.6599 -6.0979 85.3573
lradius 36.5187
lwrist -10.2688
lhand -7.14531 -33.9339
lfingers 7.12502
lthumb 18.7311 -4.81576
rfemur -3.04326 -0.362515 16.5319
rtibia 63.8814
rfoot 10.5008 -6.00637
rtoes -14.7928
lfemur -4.09756 -19.5058 -31.327
ltibia 12.3147
lfoot -9.85456 24.1474
ltoes 0.540869
533
root 9.07426 15.6827 -15.6996 176.992 8.10178 -183.52
lowerback 5.95957 2.27866 0.330147
upperback -4.74225 3.15057 -0.885362
thorax -8.26637 1.54335 -1.53431
lowerneck -11.8012 -2.12101 -6.1077
upperneck 18.6948 -2.35343 5.81509
head 7.85521 -0.77913 2.73304
rclavicle -6.41081e-015 1.78906e-015
rhumerus -45.9032 16.1962 -90.4854
rradius 32.8722
rwrist 13.7629
rhand 1.31407 -54.2644
rfingers 7.12502
rthumb 26.8484 -82.3782
lclavicle -6.41081e-015 1.78906e-015
lhumerus -43.1018 -6.09158 85.1867
lradius 36.7214
lwrist -9.03122
lhand -7.30966 -34.1339
lfingers 7.12502
lthumb 18.573 -5.00058
rfemur -4.6901 -0.870629 16.3987
rtibia 65.309
rfoot 8.48079 -6.12169
rtoes -15.3171
lfemur -3.60145 -19.645 -31.7042
ltibia 12.1706
lfoot -9.87692 24.0474
ltoes -1.03908
534
root 9.07019 15.6848 -15.8129 177.068 7.76391 -183.417
lowerback 5.99693 2.08699 0.285791
upperback -4.72859 2.89035 -0.833844
thorax -8.2845 1.41928 -1.42321
lowerneck -11.8508 -2.00943 -5.97443
upperneck 18.9158 -2.22915 5.90283
head 7.92815 -0.692988 2.75739
rclavicle 3.4191e-014 -1.78906e-015
rhumerus -45.6307 15.7208 -89.8687
rradius 32.8129
rwrist 13.7416
rhand 0.93993 -54.2818
rfingers 7.12502
rthumb 26.4904 -82.4501
lclavicle 3.4191e-014 -1.78906e-015
lhumerus -42.4161 -6.09567 84.9669
lradius 36.7852
lwrist -8.0527
lhand -7.61455 -34.2394
lfingers 7.12502
lthumb 18.2797 -5.07826
rfemur -6.24195 -1.26193 16.5588
rtibia 66.4515
rfoot 6.84846 -6.40083
rtoes -16.4411
lfemur -3.09884 -19.6875 -31.8636
ltibia 12.0303
lfoot -9.82047 23.8635
ltoes -2.8739
535
root 9.06444 15.6853 -15.9253 177.102 7.26476 -183.345
lowerback 6.09789 1.88658 0.308631
upperback -4.71833 2.62231 -0.816876
thorax -8.33826 1.28585 -1.38751
lowerneck -11.5315 -2.08101 -6.06818
upperneck 18.8388 -2.33404 6.00967
head 7.85414 -0.739459 2.79773
rclavicle -3.93594e-014 -5.1684e-015
rhumerus -45.2115 15.0381 -89.122
rradius 32.5711
rwrist 13.8405
rhand 1.27116 -54.5486
rfingers 7.12502
rthumb 26.8073 -82.6686
lclavicle -3.93594e-014 -5.1684e-015
lhumerus -41.6669 -6.20028 84.8141
lradius 36.6693
lwrist -7.2992
lhand -7.66835 -34.3008
lfingers 7.12502
lthumb 18.2279 -5.1349
rfemur -7.60171 -1.75992 16.6866
rtibia 67.3189
rfoot 5.48472 -6.87398
rtoes -17.0671
lfemur -2.64011 -19.7322 -32.0736
ltibia 12.0479
lfoot -9.87779 23.5891
ltoes -4.76518
